<svg id="Icons" height="512" viewBox="0 0 60 60" width="512" xmlns="http://www.w3.org/2000/svg"><path d="m2.11 27.6a26.241 26.241 0 0 0 0 4.783.7.7 0 0 0 .443.567l3.373 1.35a1 1 0 0 1 .607.72 23.8 23.8 0 0 0 3.324 8.016 1 1 0 0 1 .081.937l-1.428 3.348a.66.66 0 0 0 .073.7 27.925 27.925 0 0 0 3.386 3.388.664.664 0 0 0 .708.086l3.349-1.429a.994.994 0 0 1 .937.081 23.8 23.8 0 0 0 8.016 3.324 1 1 0 0 1 .721.607l1.349 3.378a.7.7 0 0 0 .555.439 26.409 26.409 0 0 0 4.782 0 .7.7 0 0 0 .567-.444l1.347-3.377a1 1 0 0 1 .72-.607 23.819 23.819 0 0 0 8.016-3.324 1 1 0 0 1 .937-.081l3.347 1.428a.651.651 0 0 0 .7-.073 27.765 27.765 0 0 0 3.38-3.386.66.66 0 0 0 .087-.708l-1.429-3.349a1 1 0 0 1 .081-.937 23.819 23.819 0 0 0 3.324-8.016 1 1 0 0 1 .607-.72l3.378-1.35a.7.7 0 0 0 .439-.555 26.5 26.5 0 0 0 0-4.782v-.014a.7.7 0 0 0 -.443-.557l-3.37-1.343a1 1 0 0 1 -.607-.721 23.8 23.8 0 0 0 -3.324-8.016 1 1 0 0 1 -.081-.937l1.428-3.347a.66.66 0 0 0 -.074-.7 27.764 27.764 0 0 0 -3.385-3.379.666.666 0 0 0 -.709-.086l-3.348 1.424a1 1 0 0 1 -.937-.081 23.8 23.8 0 0 0 -8.016-3.324 1 1 0 0 1 -.72-.607l-1.35-3.378a.7.7 0 0 0 -.551-.438 26.23 26.23 0 0 0 -4.782 0 .7.7 0 0 0 -.567.443l-1.351 3.373a1 1 0 0 1 -.721.607 23.789 23.789 0 0 0 -8.016 3.324 1 1 0 0 1 -.937.081l-3.347-1.428a.659.659 0 0 0 -.7.073 27.963 27.963 0 0 0 -3.379 3.385.666.666 0 0 0 -.087.709l1.429 3.349a1 1 0 0 1 -.081.937 23.794 23.794 0 0 0 -3.324 8.016 1 1 0 0 1 -.607.721l-3.382 1.349a.7.7 0 0 0 -.438.551zm27.89-18.6a21 21 0 1 1 -21 21 21.024 21.024 0 0 1 21-21z"/></svg>