<svg id="Layer_6" height="512" viewBox="0 0 32 32" width="512" xmlns="http://www.w3.org/2000/svg" data-name="Layer 6"><circle cx="15.96" cy="9.62" r="4.27"/><path d="m23.35 25.23-2.4-6a4.24 4.24 0 0 0 -4-2.68h-2.02a4.25 4.25 0 0 0 -4 2.68l-2.4 6a1.07 1.07 0 0 0 1 1.46h12.8a1.07 1.07 0 0 0 1-1.46z"/><path d="m6.4 16a3.73 3.73 0 1 1 3.73-3.73 3.74 3.74 0 0 1 -3.73 3.73zm0-5.33a1.6 1.6 0 1 0 1.6 1.59 1.6 1.6 0 0 0 -1.6-1.6z"/><path d="m6.37 26.66h-5.3a1.07 1.07 0 0 1 -1-1.46l2-5a3.71 3.71 0 0 1 3.47-2.35h1.72a3.71 3.71 0 0 1 2.21.73 1.09 1.09 0 0 1 .21 1.68 1.07 1.07 0 0 1 -1.44.06 1.65 1.65 0 0 0 -1-.33h-1.7a1.59 1.59 0 0 0 -1.48 1l-1.42 3.54h3.73a1.07 1.07 0 0 1 0 2.13z"/><path d="m25.6 16a3.73 3.73 0 1 1 3.73-3.73 3.74 3.74 0 0 1 -3.73 3.73zm0-5.33a1.6 1.6 0 1 0 1.6 1.6 1.6 1.6 0 0 0 -1.6-1.61z"/><path d="m30.93 26.66h-5.3a1.07 1.07 0 0 1 0-2.13h3.73l-1.41-3.53a1.59 1.59 0 0 0 -1.48-1h-1.73a1.58 1.58 0 0 0 -.94.31 1 1 0 0 1 -1.49 0 1.12 1.12 0 0 1 .27-1.73 3.65 3.65 0 0 1 2.16-.7h1.73a3.71 3.71 0 0 1 3.47 2.34l2 5a1.07 1.07 0 0 1 -1 1.46z"/></svg>