<svg fill="none" height="512" viewBox="0 0 24 24" width="512" xmlns="http://www.w3.org/2000/svg"><g clip-rule="evenodd" fill="rgb(0,0,0)" fill-rule="evenodd"><path d="m7 7.75c-.69036 0-1.25.55964-1.25 1.25s.55964 1.25 1.25 1.25 1.25-.55964 1.25-1.25-.55964-1.25-1.25-1.25zm-2.75 1.25c0-1.51878 1.23122-2.75 2.75-2.75s2.75 1.23122 2.75 2.75c0 1.5188-1.23122 2.75-2.75 2.75s-2.75-1.2312-2.75-2.75z"/><path d="m10.1456 15.6047c-1.24979 1.3995-2.55322 3.3137-3.93127 5.7631-.20311.361-.66041.489-1.02141.2859-.361-.2032-.48899-.6604-.28589-1.0214 1.40695-2.5007 2.77102-4.5165 4.11971-6.0267 1.34526-1.5065 2.71176-2.5512 4.13226-3.0431 1.4478-.5014 2.8934-.4075 4.3187.2569 1.4003.6527 2.757 1.8434 4.1044 3.4967.2616.3211.2135.7936-.1076 1.0552-.3211.2617-.7935.2135-1.0552-.1076-1.2726-1.5616-2.4597-2.5647-3.5753-3.0848-1.0906-.5083-2.1332-.5664-3.1941-.199-1.0883.3769-2.2512 1.2216-3.5043 2.6248z"/><path d="m1.64124 3.64118c.89082-.89082 2.09901-1.39118 3.35876-1.39118h7.28c.4142 0 .75.33579.75.75s-.3358.75-.75.75h-7.28c-.86198 0-1.68863.34237-2.2981.95184-.60948.60948-.9519 1.43619-.9519 2.29816v10c0 .8619.3424 1.6885.9519 2.298.60951.6096 1.43617.952 2.2981.952h12c.8619 0 1.6886-.3424 2.2981-.952.6095-.6095.9519-1.4361.9519-2.298v-5c0-.4142.3358-.75.75-.75s.75.3358.75.75v5c0 1.2598-.5004 2.4679-1.3912 3.3587s-2.099 1.3913-3.3588 1.3913h-12c-1.25981 0-2.46798-.5005-3.35876-1.3913-.890791-.8908-1.39124-2.0989-1.39124-3.3587v-10c0-1.25976.500432-2.46801 1.39124-3.35882z"/><path d="m18.75.0799561c.4142 0 .75.3357859.75.7499999v8.000004c0 .41421-.3358.75-.75.75s-.75-.33579-.75-.75v-8.000004c0-.414214.3358-.7499999.75-.7499999z"/><path d="m18.2205.299625c.2929-.29289193.7677-.29289193 1.0606 0l3.2 3.200005c.2929.29289.2929.76776 0 1.06066-.2929.29289-.7677.29289-1.0606 0l-2.6697-2.66968-2.6697 2.66968c-.2929.29289-.7678.29289-1.0606 0-.2929-.2929-.2929-.76777 0-1.06066z"/></g></svg>