<?xml version="1.0" encoding="UTF-8"?>
<svg xmlns="http://www.w3.org/2000/svg" id="Layer_1" data-name="Layer 1" viewBox="0 0 512 512" width="512" height="512"><path d="M498.655,197.341,437.69,187.085A194.476,194.476,0,0,0,430.4,168.8l33.923-47.646a16,16,0,0,0-1.721-20.594L406.7,44.659a16,16,0,0,0-20.594-1.721L340.413,75.472a194.737,194.737,0,0,0-23.684-10.015l-8.767-52.113A16,16,0,0,0,292.184,0H213.12a16,16,0,0,0-15.778,13.345l-8.768,52.113a194.726,194.726,0,0,0-26.4,11.418l-41.012-29.2A16,16,0,0,0,100.565,49.4L44.659,105.3a16,16,0,0,0-1.721,20.593L74.344,170A194.22,194.22,0,0,0,65,195.349l-51.654,8.69A16,16,0,0,0,0,219.817V298.88a16,16,0,0,0,13.346,15.778l58.526,9.847a195.325,195.325,0,0,0,9.251,19.357L47.674,390.841A16,16,0,0,0,49.4,411.435L105.3,467.341a16,16,0,0,0,20.594,1.721l53.137-37.833q7.171,2.917,14.548,5.26l10.458,62.166A16,16,0,0,0,219.816,512H298.88a16,16,0,0,0,15.778-13.346l11.324-67.31q5.795-2.348,11.43-5.061l53.429,38.042a16,16,0,0,0,20.594-1.721L467.341,406.7a16,16,0,0,0,1.721-20.594L430.31,331.678q2.97-6.466,5.466-13.138l62.879-10.578A16,16,0,0,0,512,292.184V213.12A16,16,0,0,0,498.655,197.341ZM480,278.65l-58.9,9.909a16,16,0,0,0-12.6,10.948,162.863,162.863,0,0,1-10.935,26.268,16,16,0,0,0,1.145,16.7l36.43,51.166-36.768,36.767L348.042,394.57a16.005,16.005,0,0,0-16.967-1,163.1,163.1,0,0,1-24.612,10.939,16,16,0,0,0-10.512,12.455L285.347,480h-52l-9.884-58.751a16,16,0,0,0-11.778-12.838,162.585,162.585,0,0,1-27.824-9.974,16.011,16.011,0,0,0-16.025,1.477l-49.481,35.23L81.591,398.377l31.59-44.368a16,16,0,0,0,.555-17.726,163.022,163.022,0,0,1-15.128-31.4,16,16,0,0,0-12.421-10.42L32,285.347v-52l48.507-8.161a16,16,0,0,0,12.932-12.161,162.191,162.191,0,0,1,13.656-37.312,16,16,0,0,0-1.2-16.579L76.855,118.358l36.768-36.767,38.225,27.216a16,16,0,0,0,17.452.722A162.649,162.649,0,0,1,207.175,93.11,16,16,0,0,0,218.511,80.4L226.653,32h52l8.142,48.4A16,16,0,0,0,298.127,93.11a162.611,162.611,0,0,1,35.533,15.044,16.005,16.005,0,0,0,17.224-.855l42.758-30.444,36.767,36.768L398.813,158a16,16,0,0,0-1.151,16.68,162.444,162.444,0,0,1,12.287,30.905,16,16,0,0,0,12.743,11.428L480,226.653ZM256,141.6A114.4,114.4,0,1,0,370.4,256,114.529,114.529,0,0,0,256,141.6Zm0,196.8A82.4,82.4,0,1,1,338.4,256,82.493,82.493,0,0,1,256,338.4Z"/></svg>
