<svg version="1.1" id="Capa_1" xmlns="http://www.w3.org/2000/svg" xmlns:xlink="http://www.w3.org/1999/xlink" x="0px" y="0px" viewBox="0 0 512.002 512.002" style="enable-background:new 0 0 512.002 512.002;" xml:space="preserve">
<g>
	<g>
		
			<path style="fill-rule:evenodd;clip-rule:evenodd;fill:none;stroke:#8a8b91;stroke-width:20;stroke-linecap:round;stroke-linejoin:round;stroke-miterlimit:22.9256;" d="&#10;&#9;&#9;&#9;M10,388.155c16.521-8.687,33.956-15.677,51.987-20.892 M180.986,358.677c78.622,10.766,148.56,53.514,189.014,117.324"/>
		
			<line style="fill-rule:evenodd;clip-rule:evenodd;fill:none;stroke:#8a8b91;stroke-width:20;stroke-linecap:round;stroke-linejoin:round;stroke-miterlimit:22.9256;" x1="270.103" y1="386.001" x2="502.002" y2="386.001"/>
		
			<line style="fill-rule:evenodd;clip-rule:evenodd;fill:none;stroke:#8a8b91;stroke-width:20;stroke-linecap:round;stroke-linejoin:round;stroke-miterlimit:22.9256;" x1="427.275" y1="431.001" x2="461.775" y2="431.001"/>
		
			<line style="fill-rule:evenodd;clip-rule:evenodd;fill:none;stroke:#8a8b91;stroke-width:20;stroke-linecap:round;stroke-linejoin:round;stroke-miterlimit:22.9256;" x1="253.909" y1="435.946" x2="253.916" y2="435.946"/>
		
			<path style="fill-rule:evenodd;clip-rule:evenodd;fill:none;stroke:#8a8b91;stroke-width:20;stroke-linecap:round;stroke-linejoin:round;stroke-miterlimit:22.9256;" d="&#10;&#9;&#9;&#9;M70.801,410.111c-12.938-48.219-11.925-107.753,2.584-161.901c19.686-73.471,65.844-143.116,118.613-172.209&#10;&#9;&#9;&#9;c31.152,51.58,36.304,134.973,16.617,208.444c-13.226,49.359-38.401,96.987-69.499,131.756"/>
		
			<path style="fill-rule:evenodd;clip-rule:evenodd;fill:none;stroke:#8a8b91;stroke-width:20;stroke-linecap:round;stroke-linejoin:round;stroke-miterlimit:22.9256;" d="&#10;&#9;&#9;&#9;M159.668,100.066l-29.971,111.855 M106.398,298.87L76.426,410.727"/>
		
			<line style="fill-rule:evenodd;clip-rule:evenodd;fill:none;stroke:#8a8b91;stroke-width:20;stroke-linecap:round;stroke-linejoin:round;stroke-miterlimit:22.9256;" x1="208.082" y1="112.566" x2="126.921" y2="415.466"/>
		
			<path style="fill-rule:evenodd;clip-rule:evenodd;fill:none;stroke:#8a8b91;stroke-width:20;stroke-linecap:round;stroke-linejoin:round;stroke-miterlimit:22.9256;" d="&#10;&#9;&#9;&#9;M51.455,412.976c9.314-1.019,18.687-1.53,28.069-1.53c26.94,0,53.679,4.213,79.053,12.456"/>
		
			<circle style="fill-rule:evenodd;clip-rule:evenodd;fill:none;stroke:#8a8b91;stroke-width:20;stroke-linecap:round;stroke-linejoin:round;stroke-miterlimit:22.9256;" cx="369.843" cy="125.159" r="39.159"/>
		
			<line style="fill-rule:evenodd;clip-rule:evenodd;fill:none;stroke:#8a8b91;stroke-width:20;stroke-linecap:round;stroke-linejoin:round;stroke-miterlimit:22.9256;" x1="369.843" y1="46.001" x2="369.843" y2="36.001"/>
		
			<line style="fill-rule:evenodd;clip-rule:evenodd;fill:none;stroke:#8a8b91;stroke-width:20;stroke-linecap:round;stroke-linejoin:round;stroke-miterlimit:22.9256;" x1="313.869" y1="69.186" x2="306.798" y2="62.115"/>
		
			<line style="fill-rule:evenodd;clip-rule:evenodd;fill:none;stroke:#8a8b91;stroke-width:20;stroke-linecap:round;stroke-linejoin:round;stroke-miterlimit:22.9256;" x1="290.684" y1="125.159" x2="280.684" y2="125.159"/>
		
			<line style="fill-rule:evenodd;clip-rule:evenodd;fill:none;stroke:#8a8b91;stroke-width:20;stroke-linecap:round;stroke-linejoin:round;stroke-miterlimit:22.9256;" x1="313.869" y1="181.133" x2="306.798" y2="188.204"/>
		
			<line style="fill-rule:evenodd;clip-rule:evenodd;fill:none;stroke:#8a8b91;stroke-width:20;stroke-linecap:round;stroke-linejoin:round;stroke-miterlimit:22.9256;" x1="369.843" y1="204.318" x2="369.843" y2="214.318"/>
		
			<line style="fill-rule:evenodd;clip-rule:evenodd;fill:none;stroke:#8a8b91;stroke-width:20;stroke-linecap:round;stroke-linejoin:round;stroke-miterlimit:22.9256;" x1="425.816" y1="181.133" x2="432.887" y2="188.204"/>
		
			<line style="fill-rule:evenodd;clip-rule:evenodd;fill:none;stroke:#8a8b91;stroke-width:20;stroke-linecap:round;stroke-linejoin:round;stroke-miterlimit:22.9256;" x1="449.001" y1="125.159" x2="459.001" y2="125.159"/>
		
			<line style="fill-rule:evenodd;clip-rule:evenodd;fill:none;stroke:#8a8b91;stroke-width:20;stroke-linecap:round;stroke-linejoin:round;stroke-miterlimit:22.9256;" x1="425.816" y1="69.186" x2="432.887" y2="62.115"/>
		
			<line style="fill-rule:evenodd;clip-rule:evenodd;fill:none;stroke:#8a8b91;stroke-width:20;stroke-linecap:round;stroke-linejoin:round;stroke-miterlimit:22.9256;" x1="100.531" y1="476" x2="100.538" y2="476"/>
		
			<line style="fill-rule:evenodd;clip-rule:evenodd;fill:none;stroke:#8a8b91;stroke-width:20;stroke-linecap:round;stroke-linejoin:round;stroke-miterlimit:2.6131;" x1="118.047" y1="255.397" x2="118.054" y2="255.397"/>
	</g>
</g>
<g>
</g>
<g>
</g>
<g>
</g>
<g>
</g>
<g>
</g>
<g>
</g>
<g>
</g>
<g>
</g>
<g>
</g>
<g>
</g>
<g>
</g>
<g>
</g>
<g>
</g>
<g>
</g>
<g>
</g>
</svg>