<svg id="Layer_2" height="512" viewBox="0 0 16 16" width="512" xmlns="http://www.w3.org/2000/svg" data-name="Layer 2"><path d="m14.665 4.0518a1.404 1.404 0 0 0 -1.4585.0761l-2.7065 1.8163v-1.4442a1.5017 1.5017 0 0 0 -1.5-1.5h-7a1.5017 1.5017 0 0 0 -1.5 1.5v7a1.5017 1.5017 0 0 0 1.5 1.5h7a1.5017 1.5017 0 0 0 1.5-1.5v-1.4443l2.707 1.8164a1.3939 1.3939 0 0 0 1.458.0761 1.6235 1.6235 0 0 0 .835-1.45v-4.9962a1.6235 1.6235 0 0 0 -.835-1.4502zm-5.165 7.4482a.5006.5006 0 0 1 -.5.5h-7a.5006.5006 0 0 1 -.5-.5v-7a.5006.5006 0 0 1 .5-.5h7a.5006.5006 0 0 1 .5.5zm5-1.002a.6266.6266 0 0 1 -.3057.5684.3983.3983 0 0 1 -.43-.0244l-3.2643-2.1904v-1.7032l3.2637-2.19a.4051.4051 0 0 1 .4306-.0244.6266.6266 0 0 1 .3057.568z"/></svg>